<svg width="248" height="188" viewBox="0 0 248 188" fill="none" xmlns="http://www.w3.org/2000/svg">
<g opacity="0.25">
<g clip-path="url(#clip0)">
<path d="M73.9446 68.9888L82.9 67.373L78.1934 70.8611C77.6736 71.373 78.0418 72.248 78.7765 72.248H90.2595C89.7728 70.9073 89.5 69.4819 89.5 68.0138V65.8673L83.3264 61.4189C82.0982 60.6125 80.4755 60.7074 79.353 61.652L73.2996 67.5598C72.6612 68.0844 73.1217 69.1046 73.9446 68.9888V68.9888ZM102.658 70.7205L97.468 68.1657C97.0569 67.9633 96.7113 67.6522 96.4697 67.2672C96.2281 66.8823 96.1001 66.4387 96.1 65.9861V64.123H99.4L100.848 65.2721C101.158 65.5768 101.577 65.748 102.015 65.748H103.612C103.919 65.7479 104.219 65.6639 104.48 65.5052C104.74 65.3466 104.951 65.1196 105.088 64.8496L105.826 63.3963C105.963 63.1264 106.021 62.8242 105.993 62.5237C105.966 62.2231 105.854 61.9361 105.67 61.6946L101.827 56.648C101.515 56.2387 101.026 56 100.507 56H88.2635C87.8959 56 87.7118 56.4352 87.9717 56.6911L91.15 59.248L88.0779 60.5094C87.7737 60.6592 87.7737 61.0863 88.0779 61.2361L91.15 62.498V68.0138C91.15 71.6741 93.0078 75.0922 96.1 77.123C86.0149 77.4688 78.3336 79.2055 73.7167 80.2161C73.298 80.3075 73 80.6736 73 81.0961C73 81.5938 73.4099 82 73.9158 82H99.6496C102.913 82.0005 105.817 79.5848 105.991 76.3755C106.121 73.9745 104.819 71.7848 102.658 70.7205ZM98.2233 59.3643L100.577 59.9437C100.435 60.4977 99.9342 60.9029 99.333 60.8709C98.6647 60.8349 98.0001 60.2346 98.2233 59.3643V59.3643Z" fill="black"/>
</g>
<path d="M137.393 33.3333H160.893C162.571 33.3333 163.813 34.0799 164.617 35.5729C165.422 37.066 165.771 39.0538 165.666 41.5365C165.631 42.3698 165.408 43.1293 164.997 43.8151C164.587 44.5009 164.088 45.0347 163.503 45.4167C162.917 45.7986 162.331 46.0894 161.745 46.2891C161.16 46.4887 160.622 46.5885 160.132 46.5885C158.908 46.5885 157.794 46.4757 156.788 46.25C155.783 46.0243 154.965 45.7509 154.336 45.4297C153.706 45.1085 153.125 44.7917 152.592 44.4792C152.059 44.1667 151.503 43.8976 150.926 43.6719C150.349 43.4462 149.755 43.3333 149.143 43.3333C148.408 43.3333 147.665 43.5026 146.914 43.8411C146.162 44.1797 145.48 44.553 144.868 44.9609C144.256 45.3689 143.36 45.7422 142.179 46.0807C140.999 46.4193 139.657 46.5885 138.153 46.5885C137.664 46.5885 137.126 46.4887 136.54 46.2891C135.955 46.0894 135.365 45.7986 134.77 45.4167C134.176 45.0347 133.673 44.5009 133.262 43.8151C132.851 43.1293 132.628 42.3698 132.593 41.5365C132.506 39.0365 132.864 37.0443 133.669 35.5599C134.473 34.0755 135.714 33.3333 137.393 33.3333ZM149.143 60C151.871 60 154.476 59.4705 156.959 58.4115C159.442 57.3524 161.584 55.9332 163.384 54.1536C165.185 52.3741 166.615 50.2474 167.673 47.7734C168.731 45.2995 169.259 42.7083 169.259 40C169.259 37.9514 168.971 35.9983 168.394 34.1406L173.771 38.3854L176 33.3333L167.791 32.4479C167.773 32.4132 167.756 32.3698 167.738 32.3177C167.721 32.2656 167.703 32.2179 167.686 32.1745C167.668 32.1311 167.651 32.092 167.633 32.0573L175.554 28.8021L172.223 24.2969L167.188 31.1458C165.526 27.7951 163.078 25.0998 159.844 23.0599C156.609 21.02 153.042 20 149.143 20C145.488 20 142.118 20.8941 139.032 22.6823C135.946 24.4705 133.502 26.8967 131.701 29.9609C129.9 33.0252 129 36.3715 129 40C129 43.6285 129.9 46.9748 131.701 50.0391C133.502 53.1033 135.946 55.5295 139.032 57.3177C142.118 59.1059 145.488 60 149.143 60ZM137.078 34.6354L135.714 38.3333L138.993 38.2552C138.503 38.8281 138.258 39.5573 138.258 40.4427C138.258 41.2066 138.525 41.8793 139.058 42.4609C139.592 43.0425 140.156 43.3333 140.75 43.3333C141.362 43.3333 141.908 43.0469 142.389 42.474C142.87 41.901 143.11 41.224 143.11 40.4427C143.11 40.0087 143.049 39.6354 142.927 39.3229L146.363 40.0521L147.018 38.4635L137.078 34.6354ZM161.208 34.6354L151.267 38.4635L151.923 40.0521L155.359 39.3229C155.236 39.6354 155.175 40.0087 155.175 40.4427C155.175 41.224 155.416 41.901 155.896 42.474C156.377 43.0469 156.924 43.3333 157.536 43.3333C158.13 43.3333 158.694 43.0425 159.227 42.4609C159.761 41.8793 160.027 41.2066 160.027 40.4427C160.027 39.5573 159.783 38.8281 159.293 38.2552L162.571 38.3333L161.208 34.6354Z" fill="black"/>
<path d="M35.3626 39.7955C34.6981 39.5864 34.6957 39.4941 35.3079 37.6579C35.9192 35.8243 35.6389 34.1214 34.5058 32.7829C32.9652 30.9629 32.223 29.4097 31.9867 27.5093C31.7836 25.8777 31.7192 25.7484 31.047 25.6209C30.5963 25.5355 29.9732 25.7049 28.4887 26.3166C26.3287 27.2069 25.8142 27.5979 25.3046 28.736C25.0371 29.3339 25.0049 29.692 25.1567 30.3837C25.3421 31.2282 26.1021 32.5879 26.3899 32.5895C26.465 32.59 26.8797 32.8707 27.3116 33.2134C28.0281 33.7819 28.0774 33.8805 27.8747 34.3441C27.4339 35.351 26.3872 36.5718 25.9642 36.5718C25.727 36.5718 24.7584 35.9012 23.6921 34.999C21.5971 33.2269 21.5094 33.0493 21.2931 30.1444C21.0351 26.6787 21.8975 25.0611 25.7394 21.8071L28.1488 19.7663L28.3028 18.528C28.4613 17.2518 28.2376 14.2131 27.8615 12.5353C27.6394 11.5446 26.9065 10.6005 26.2107 10.4099C25.4526 10.2021 25.0084 10.631 24.4317 12.1264C23.8093 13.74 23.2149 14.3029 22.1328 14.3029C21.4587 14.3029 20.8293 13.8767 20.395 13.1261C20.0839 12.5881 19.9031 9.35637 20.0892 7.65504C20.1788 6.83685 20.1839 6.00831 20.1008 5.81377C19.9653 5.49757 18.799 4.81375 16.0494 3.4379C15.5497 3.1877 14.967 2.85083 14.7546 2.68942C14.5421 2.52774 13.9911 2.23089 13.53 2.02945C12.4854 1.57384 9.7619 0 10.0167 0C10.4993 0 12.5436 0.621796 13.6317 1.09941C14.2961 1.39096 14.9319 1.6295 15.0448 1.6295C15.1577 1.6295 16.4386 2.03687 17.8909 2.53463C19.3435 3.03265 20.6711 3.44002 20.8411 3.44002C21.2451 3.44002 21.3084 3.09467 21.1791 1.59796C21.1201 0.918382 21.1228 0.362052 21.1845 0.362052C21.2467 0.362052 21.5145 0.49325 21.7795 0.653602C22.5896 1.14394 24.3321 1.44397 26.38 1.44609C28.3385 1.44874 30.8946 1.83226 31.8716 2.27091C33.2732 2.90013 34.8988 4.8657 36.9611 8.4242C38.3946 10.8981 39.9352 11.9456 42.1429 11.948C43.0353 11.949 45.4166 11.5854 48.6412 10.9559C51.2998 10.437 54.8099 10.3203 56.1723 10.7057C57.8341 11.1759 60.0319 12.4325 61.8487 13.9517C63.5494 15.374 63.8115 15.6896 64.8561 17.5768C66.1029 19.8286 67.4788 23.0293 68.7025 26.5236C68.8769 27.0214 69.2452 27.8589 69.5207 28.3848C70.2565 29.7874 70.22 29.873 68.8831 29.873C67.4318 29.873 66.7513 29.6469 65.8001 28.8489C64.8877 28.0832 64.6493 27.6148 63.2214 23.7812C62.4899 21.8177 61.7779 20.6396 61.3227 20.6396C61.011 20.6396 60.3798 22.7438 60.3798 23.7833C60.3798 24.5217 60.8482 25.5194 62.059 27.3598C64.0256 30.3496 65.0605 34.5765 64.6463 37.9299L64.4674 39.3781L63.1565 39.4319C61.0928 39.5167 61.1135 39.545 61.1135 36.6293C61.1135 33.5253 60.8994 32.8529 59.5131 31.6011C58.9372 31.0811 57.6453 29.6037 56.642 28.318C55.6388 27.0325 54.6779 25.9803 54.5067 25.9803C54.114 25.9803 53.9179 27.0378 53.897 29.2706C53.8836 30.7413 53.8246 30.9902 53.3857 31.4431C52.1952 32.6716 51.3596 34.9086 50.8446 38.2458C50.7306 38.9845 50.6327 39.1226 50.1482 39.2302C49.4355 39.3881 47.4612 39.4141 47.2908 39.2675C47.1441 39.1411 47.4014 37.1352 47.9845 33.8561C48.2061 32.6115 48.4478 30.9411 48.5216 30.1444C48.6533 28.7264 48.359 26.0696 48.0108 25.5318C47.866 25.3084 47.1285 25.2599 43.6794 25.2474C41.3934 25.2392 38.8858 25.165 38.1078 25.0823L36.6928 24.9323V25.5525C36.6928 26.217 36.8653 26.8027 38.0177 30.054C38.4236 31.199 39.0118 32.9449 39.3246 33.9335L39.8938 35.7308L39.4137 37.1922C39.1495 37.9961 38.7575 38.9593 38.5424 39.3327C38.1634 39.9914 38.1188 40.0113 37.0555 39.9975C36.4525 39.9895 35.6906 39.8986 35.3626 39.7955V39.7955Z" fill="black"/>
<path fill-rule="evenodd" clip-rule="evenodd" d="M38.1959 83.109C35.7432 79.4988 34.8532 76.41 35.6246 74.1752C36.4639 71.7398 39.0479 70.9304 39.1039 70.9124C39.6086 70.7644 39.9006 70.227 39.7579 69.709C39.726 69.5869 39.67 69.4725 39.5933 69.3723C39.5166 69.2721 39.4207 69.1882 39.3112 69.1255C39.2017 69.0628 39.0809 69.0226 38.9556 69.0071C38.8304 68.9917 38.7034 69.0014 38.5819 69.0356C38.4379 69.0776 35.0232 70.1017 33.8366 73.4999C32.8252 76.3967 33.7666 80.0042 36.6319 84.2238C37.8626 86.0339 38.3186 87.85 37.9899 89.6234C37.8393 90.4334 37.5359 91.1748 37.1659 91.8375C35.6359 79.0622 25.6692 71.8631 20.0005 71.8631C15.6378 71.8631 4.41307 77.8414 2.82306 91.8208C2.45972 91.1675 2.16239 90.4361 2.01239 89.6354C1.67972 87.8586 2.13572 86.0379 3.36839 84.2238C6.23441 80.0042 7.17442 76.396 6.16374 73.4999C4.97707 70.1017 1.56305 69.0783 1.41905 69.0363C1.29761 69.002 1.17057 68.9924 1.04535 69.0078C0.920122 69.0232 0.79923 69.0635 0.689737 69.1262C0.580243 69.1889 0.484345 69.2727 0.407647 69.3729C0.330949 69.4731 0.274991 69.5876 0.243043 69.7097C0.0997093 70.2284 0.394378 70.767 0.90038 70.9137C0.926381 70.9211 3.5104 71.6951 4.3704 74.1572C5.15174 76.3933 4.26507 79.4888 1.80505 83.109C0.26771 85.3712 -0.291626 87.6913 0.142376 90.0041C0.523045 92.0355 1.60838 93.6829 2.63772 94.8517C2.63572 95.0563 2.62572 95.2544 2.62772 95.4617C2.65106 98.0938 2.78239 104.77 4.1084 105.872C5.43641 106.976 8.72642 104.145 10.2784 104.891C11.8831 105.662 12.4384 108.567 14.1898 108.954C15.9638 109.348 18.1751 107.051 19.9992 107.052C21.8218 107.051 24.0365 109.349 25.8105 108.954C27.5592 108.566 28.1172 105.662 29.7219 104.89C31.2739 104.145 34.5612 106.975 35.8906 105.871C37.2159 104.77 37.3479 98.0932 37.3699 95.461C37.3719 95.2557 37.3633 95.0563 37.3606 94.8537C38.3899 93.6836 39.4766 92.0355 39.8573 90.0034C40.2919 87.6913 39.7326 85.3718 38.1959 83.109V83.109ZM20.0005 77.9521C25.3572 77.9521 27.2499 79.3542 26.8452 80.0869C25.9945 81.6256 25.3572 80.3916 20.0005 80.3916C14.6438 80.3916 14.0051 81.6256 13.1551 80.0869C12.7504 79.3542 14.6438 77.9521 20.0005 77.9521V77.9521ZM10.1304 101.849C9.6791 102.801 7.93575 102.889 6.23908 102.043C4.54107 101.197 3.53173 99.7413 3.9844 98.7879C4.4364 97.8358 6.17908 97.7485 7.87575 98.5952C9.57243 99.4406 10.5818 100.898 10.1304 101.849V101.849ZM12.2384 97.3311C9.12843 95.835 5.53307 97.2238 7.73842 91.8968C8.45242 90.1714 11.4211 91.6668 14.1311 93.5196C13.2651 93.8629 12.6404 94.7537 12.6404 95.8057C12.6404 97.1558 13.6558 98.2485 14.9058 98.2485C16.1558 98.2485 17.1698 97.1558 17.1698 95.8057C17.1698 95.8004 17.1671 95.7937 17.1671 95.7877C16.1967 95.005 15.1978 94.2582 14.1725 93.5489C16.7025 95.2844 18.9945 97.3178 18.9945 97.3178C17.6091 100.661 15.3471 98.8285 12.2384 97.3311V97.3311ZM13.1558 84.7625C12.7504 84.0291 14.6438 82.6283 20.0012 82.6283C25.3579 82.6283 27.2505 84.0291 26.8459 84.7625C25.9945 86.2999 25.3572 85.0671 20.0005 85.0671C14.6438 85.0671 14.0051 86.2999 13.1558 84.7625V84.7625ZM22.4252 97.5118C22.4252 97.5118 22.8952 96.6198 23.6252 95.3784C23.5995 95.5194 23.5857 95.6624 23.5838 95.8057C23.5838 97.1558 24.5978 98.2485 25.8479 98.2485C27.0979 98.2485 28.1119 97.1558 28.1119 95.8057C28.1119 94.4583 27.0979 93.3656 25.8479 93.3656C25.3872 93.3656 24.9579 93.5156 24.6032 93.7696C24.4338 94.0383 24.2718 94.3003 24.1172 94.5556C26.1619 91.1901 29.5292 86.3719 31.1386 88.1093C33.5412 90.6994 33.5472 94.9157 31.1399 97.5125C28.7332 100.109 24.8252 100.102 22.4252 97.5118V97.5118ZM33.7612 102.043C32.0639 102.889 30.3212 102.801 29.8685 101.849C29.4185 100.897 30.4265 99.4406 32.1246 98.5952C33.8219 97.7485 35.5639 97.8358 36.0159 98.7879C36.4679 99.7413 35.4592 101.197 33.7612 102.043" fill="black"/>
<path d="M69.5 141C68.5182 141 67.398 140.647 66.1393 139.942C64.8806 139.237 63.6031 138.217 62.3066 136.881C61.0102 135.545 59.8145 134.023 58.7194 132.316C57.6243 130.609 56.7307 128.636 56.0384 126.397C55.3461 124.159 55 121.901 55 119.625C55 117.225 55.3084 115.023 55.9251 113.02C56.5419 111.016 57.4418 109.265 58.625 107.769C59.8082 106.272 61.3249 105.103 63.1751 104.262C65.0254 103.421 67.1337 103 69.5 103C71.8663 103 73.9746 103.421 75.8249 104.262C77.6751 105.103 79.1918 106.272 80.375 107.769C81.5582 109.265 82.4581 111.016 83.0749 113.02C83.6916 115.023 84 117.225 84 119.625C84 121.901 83.6539 124.159 82.9616 126.397C82.2693 128.636 81.3757 130.609 80.2806 132.316C79.1855 134.023 77.9898 135.545 76.6934 136.881C75.3969 138.217 74.1194 139.237 72.8607 139.942C71.602 140.647 70.4818 141 69.5 141ZM64.6667 126.75C63.7352 125.587 62.615 124.703 61.306 124.097C59.997 123.491 58.7005 123.187 57.4167 123.187C57.4167 124.35 57.7691 125.717 58.474 127.288C59.1788 128.859 60.0347 130.263 61.0417 131.5C61.52 132.069 61.9794 132.527 62.4199 132.873C62.8605 133.219 63.3639 133.461 63.9303 133.597C64.4967 133.733 64.9688 133.813 65.3464 133.838C65.724 133.863 66.303 133.875 67.0833 133.875C67.0833 131.104 66.2778 128.729 64.6667 126.75ZM74.3333 126.75C72.7222 128.729 71.9167 131.104 71.9167 133.875C72.697 133.875 73.276 133.863 73.6536 133.838C74.0313 133.813 74.5033 133.733 75.0697 133.597C75.6361 133.461 76.1395 133.219 76.5801 132.873C77.0206 132.527 77.48 132.069 77.9583 131.5C78.9653 130.263 79.8212 128.859 80.526 127.288C81.2309 125.717 81.5833 124.35 81.5833 123.187C80.2995 123.187 79.003 123.491 77.694 124.097C76.385 124.703 75.2648 125.587 74.3333 126.75Z" fill="black"/>
<path fill-rule="evenodd" clip-rule="evenodd" d="M160.434 142.217L156.101 145.056V154.043L160.434 156.881C161.296 156.881 162 155.802 162 154.479V144.623C162 143.297 161.296 142.217 160.434 142.217V142.217Z" fill="black"/>
<path fill-rule="evenodd" clip-rule="evenodd" d="M141.019 132.941C143.391 132.934 145.663 131.985 147.336 130.304C149.009 128.622 149.945 126.344 149.94 123.972C149.946 121.6 149.01 119.321 147.337 117.639C145.664 115.956 143.391 115.007 141.019 115C139.843 115.003 138.68 115.237 137.595 115.689C136.511 116.142 135.526 116.804 134.697 117.637C133.868 118.47 133.211 119.458 132.764 120.545C132.317 121.632 132.088 122.797 132.092 123.972C132.087 126.345 133.025 128.623 134.698 130.305C136.372 131.987 138.646 132.935 141.019 132.941V132.941ZM141.019 117.899C144.35 117.899 147.05 120.62 147.05 123.972C147.05 127.328 144.353 130.046 141.019 130.046C140.223 130.044 139.436 129.886 138.701 129.58C137.967 129.273 137.3 128.826 136.739 128.261C136.178 127.697 135.734 127.028 135.432 126.292C135.129 125.556 134.975 124.768 134.978 123.972C134.974 122.366 135.608 120.824 136.741 119.685C137.874 118.546 139.412 117.903 141.019 117.899V117.899Z" fill="black"/>
<path fill-rule="evenodd" clip-rule="evenodd" d="M121.541 132.977C122.546 133.023 123.55 132.864 124.492 132.51C125.434 132.157 126.295 131.616 127.022 130.921C127.75 130.225 128.328 129.39 128.724 128.464C129.119 127.539 129.323 126.543 129.323 125.537C129.323 124.531 129.119 123.535 128.724 122.61C128.328 121.685 127.75 120.849 127.022 120.154C126.295 119.459 125.434 118.918 124.492 118.564C123.55 118.211 122.546 118.052 121.541 118.097C119.626 118.183 117.817 119.005 116.492 120.39C115.167 121.776 114.428 123.62 114.428 125.537C114.428 127.455 115.167 129.298 116.492 130.684C117.817 132.07 119.626 132.891 121.541 132.977ZM121.541 121.023C122.134 121.023 122.721 121.139 123.269 121.366C123.817 121.593 124.315 121.926 124.734 122.345C125.154 122.765 125.486 123.263 125.713 123.81C125.94 124.358 126.057 124.946 126.057 125.539C126.057 126.132 125.94 126.719 125.713 127.267C125.486 127.815 125.154 128.313 124.734 128.732C124.315 129.151 123.817 129.484 123.269 129.711C122.721 129.938 122.134 130.055 121.541 130.055C120.343 130.055 119.195 129.579 118.348 128.732C117.501 127.885 117.025 126.736 117.025 125.539C117.025 124.341 117.501 123.192 118.348 122.345C119.195 121.498 120.343 121.023 121.541 121.023V121.023Z" fill="black"/>
<path fill-rule="evenodd" clip-rule="evenodd" d="M148.725 136.201H118.252C115.903 136.201 114 138.173 114 140.606V158.685C114 161.118 115.903 163.087 118.252 163.087H148.725C151.073 163.087 152.98 161.118 152.98 158.685V140.609C152.98 138.173 151.073 136.201 148.725 136.201Z" fill="black"/>
<path d="M242.875 15.0556V17.1111H238.75V15.0556C238.75 13.925 237.822 13 236.688 13H224.312C223.178 13 222.25 13.925 222.25 15.0556V17.1111H218.125V15.0556C218.125 13.925 217.197 13 216.062 13C214.928 13 214 13.925 214 15.0556V47.9444C214 49.075 214.928 50 216.062 50C217.197 50 218.125 49.075 218.125 47.9444V45.8889H222.25V47.9444C222.25 49.075 223.178 50 224.312 50H236.688C237.822 50 238.75 49.075 238.75 47.9444V45.8889H242.875V47.9444C242.875 49.075 243.803 50 244.938 50C246.072 50 247 49.075 247 47.9444V15.0556C247 13.925 246.072 13 244.938 13C243.803 13 242.875 13.925 242.875 15.0556ZM222.25 41.7778H218.125V37.6667H222.25V41.7778ZM222.25 33.5556H218.125V29.4444H222.25V33.5556ZM222.25 25.3333H218.125V21.2222H222.25V25.3333ZM242.875 41.7778H238.75V37.6667H242.875V41.7778ZM242.875 33.5556H238.75V29.4444H242.875V33.5556ZM242.875 25.3333H238.75V21.2222H242.875V25.3333Z" fill="black"/>
<path d="M42 153L46 159H40L36 153H32L36 159H30L26 153H22L26 159H20L16 153H14C11.8 153 10.02 154.8 10.02 157L10 181C10 183.2 11.8 185 14 185H46C48.2 185 50 183.2 50 181V153H42ZM28.5 175.5L26 181L23.5 175.5L18 173L23.5 170.5L26 165L28.5 170.5L34 173L28.5 175.5ZM39.88 168.88L38 173L36.12 168.88L32 167L36.12 165.12L38 161L39.88 165.12L44 167L39.88 168.88Z" fill="black"/>
<path d="M246.844 100.089L243.235 94.7103L245.022 88.4174C245.139 87.9955 245.039 87.6264 244.724 87.3099C244.409 86.9935 244.041 86.8939 243.62 87.0111L237.384 88.8392L231.953 85.2181C231.602 84.9603 231.229 84.931 230.831 85.1303C230.434 85.3295 230.224 85.6517 230.201 86.0971L230.026 92.6361L224.875 96.6791C224.735 96.7963 224.624 96.9486 224.542 97.1361C224.46 97.3236 224.443 97.5228 224.49 97.7338C224.49 97.8041 224.507 97.8803 224.542 97.9623C224.577 98.0443 224.612 98.1146 224.647 98.1732C224.682 98.2318 224.729 98.2904 224.787 98.349C224.846 98.4076 224.91 98.4603 224.98 98.5072C225.05 98.5541 225.12 98.5892 225.19 98.6127L230.026 100.335C229.955 100.382 229.92 100.417 229.92 100.441L211.315 119.074C211.175 119.214 211.082 119.384 211.035 119.583C210.988 119.783 210.988 119.976 211.035 120.163C211.082 120.351 211.175 120.527 211.315 120.691C211.549 120.902 211.818 121.007 212.121 121.007C212.425 121.007 212.693 120.902 212.927 120.691L231.497 102.023C231.567 101.953 231.626 101.87 231.672 101.777L233.564 106.98C233.728 107.378 234.02 107.613 234.44 107.683C234.51 107.706 234.569 107.718 234.616 107.718C234.989 107.718 235.293 107.566 235.527 107.261L239.486 102.093L245.933 101.847C246.143 101.847 246.336 101.794 246.511 101.689C246.686 101.583 246.82 101.437 246.914 101.249C247.101 100.851 247.077 100.464 246.844 100.089ZM238.89 99.8783C238.54 99.8783 238.259 100.019 238.049 100.3L234.966 104.273L233.249 99.5619C233.132 99.2338 232.91 99.0111 232.583 98.8939L227.888 97.1713L231.812 94.0775C231.906 94.0072 231.982 93.931 232.04 93.849C232.099 93.767 232.145 93.6732 232.18 93.5678C232.215 93.4623 232.233 93.351 232.233 93.2338L232.408 88.2064L236.543 91.0189C236.846 91.2064 237.162 91.2533 237.489 91.1596L242.289 89.7533L240.922 94.5697C240.899 94.64 240.887 94.7103 240.887 94.7806V94.974L240.905 95.1674L240.975 95.3607L241.062 95.5189L243.901 99.6674L238.89 99.8783Z" fill="black"/>
<path d="M197.375 105.75C197.712 105.75 198.049 105.919 198.387 106.256L202 109.869V110.375H198.531C198.218 110.375 197.947 110.489 197.718 110.718C197.489 110.947 197.375 111.218 197.375 111.531V115H196.869L193.256 111.387C192.919 111.049 192.75 110.712 192.75 110.375V107.34L183.5 98.0898L167.096 114.458C166.879 114.819 166.566 115 166.156 115C165.843 115 165.572 114.886 165.343 114.657C165.114 114.428 165 114.157 165 113.844V112.688C165 108.183 165.825 103.901 167.475 99.8423C169.125 95.7834 171.432 92.1641 174.395 88.9844L167.674 82.2637L166.156 83.7812C165.843 83.7812 165.572 83.6668 165.343 83.438C165.114 83.2091 165 82.9382 165 82.625V79.1562C165 78.8431 165.114 78.5721 165.343 78.3433C165.572 78.1144 165.843 78 166.156 78H169.625C169.938 78 170.209 78.1144 170.438 78.3433C170.667 78.5721 170.781 78.8431 170.781 79.1562L169.228 80.71L175.984 87.4307C179.14 84.4437 182.753 82.1252 186.824 80.4751C190.895 78.825 195.183 78 199.688 78H200.844C201.157 78 201.428 78.1144 201.657 78.3433C201.886 78.5721 202 78.8431 202 79.1562C202 79.5658 201.819 79.8789 201.458 80.0957L185.054 96.5L194.304 105.75H197.375ZM167.421 111.025L181.91 96.5L177.538 92.1279C174.72 95.0667 172.401 98.1922 170.583 101.504C168.764 104.817 167.71 107.99 167.421 111.025V111.025ZM198.025 80.4209C194.99 80.71 191.817 81.7638 188.504 83.5825C185.192 85.4012 182.055 87.7197 179.092 90.5381L183.5 94.9463L198.025 80.4209Z" fill="black"/>
<path d="M201.561 178.408C201.763 178.603 201.925 178.837 202.035 179.095C202.146 179.353 202.204 179.63 202.207 179.911C202.209 180.192 202.156 180.47 202.05 180.73C201.943 180.99 201.786 181.226 201.588 181.424C201.389 181.623 201.153 181.78 200.893 181.886C200.633 181.993 200.355 182.046 200.074 182.044C199.793 182.041 199.516 181.983 199.258 181.872C199 181.761 198.767 181.6 198.572 181.398L195.582 178.408L189.602 184.39C189.998 184.787 190.221 185.325 190.221 185.886C190.221 186.447 189.998 186.985 189.601 187.381C189.204 187.778 188.666 188 188.105 188C187.544 188 187.006 187.777 186.61 187.38L183.62 184.39C183.223 183.994 183 183.456 183 182.895C183 182.334 183.222 181.796 183.619 181.399C184.015 181.002 184.553 180.779 185.114 180.779C185.675 180.779 186.213 181.002 186.61 181.398L192.592 175.418L189.602 172.428C189.217 172.03 189.004 171.496 189.008 170.941C189.013 170.387 189.236 169.856 189.628 169.464C190.02 169.072 190.55 168.85 191.104 168.845C191.659 168.84 192.193 169.053 192.592 169.439L201.561 178.408V178.408ZM203.059 176.913L194.085 167.941L212.028 150L219.505 151.495L221 158.972L203.059 176.913V176.913Z" fill="black"/>
</g>
<defs>
<clipPath id="clip0">
<rect x="73" y="56" width="33" height="26" fill="white"/>
</clipPath>
</defs>
</svg>
