<svg width="32" height="30" viewBox="0 0 32 30" fill="none" xmlns="http://www.w3.org/2000/svg">
<path d="M4 14H28V30H4V14Z" fill="white"/>
<path fill-rule="evenodd" clip-rule="evenodd" d="M26 16H6V28H26V16ZM4 14V30H28V14H4Z" fill="#696969"/>
<path d="M4 0H28V16H4V0Z" fill="white"/>
<path fill-rule="evenodd" clip-rule="evenodd" d="M26 2H6V14H26V2ZM4 0V16H28V0H4Z" fill="#696969"/>
<path d="M0 0H6V30H0V0Z" fill="#696969"/>
<path d="M26 0H32V30H26V0Z" fill="#696969"/>
<path d="M2 2H4V4H2V2Z" fill="white"/>
<path d="M2 6H4V8H2V6Z" fill="white"/>
<path d="M2 10H4V12H2V10Z" fill="white"/>
<path d="M2 14H4V16H2V14Z" fill="white"/>
<path d="M2 18H4V20H2V18Z" fill="white"/>
<path d="M2 22H4V24H2V22Z" fill="white"/>
<path d="M2 26H4V28H2V26Z" fill="white"/>
<path d="M28 2H30V4H28V2Z" fill="white"/>
<path d="M28 6H30V8H28V6Z" fill="white"/>
<path d="M28 10H30V12H28V10Z" fill="white"/>
<path d="M28 14H30V16H28V14Z" fill="white"/>
<path d="M28 18H30V20H28V18Z" fill="white"/>
<path d="M28 22H30V24H28V22Z" fill="white"/>
<path d="M28 26H30V28H28V26Z" fill="white"/>
<path d="M12.2754 23.7754C12.2754 23.707 12.2819 23.6289 12.2949 23.541C12.3112 23.4531 12.3307 23.3636 12.3535 23.2725C12.3763 23.1781 12.3991 23.0869 12.4219 22.999C12.4447 22.9111 12.4642 22.833 12.4805 22.7646C12.5 22.68 12.4984 22.6149 12.4756 22.5693C12.4528 22.5238 12.4137 22.501 12.3584 22.501C12.3324 22.501 12.2803 22.5238 12.2021 22.5693C12.1273 22.6149 12.0443 22.6947 11.9531 22.8086C11.8652 22.9193 11.7773 23.0706 11.6895 23.2627C11.6048 23.4515 11.5381 23.6924 11.4893 23.9854C11.4274 24.0179 11.3688 24.0391 11.3135 24.0488C11.2842 24.0553 11.2581 24.0602 11.2354 24.0635C11.1702 24.0667 11.1279 24.0553 11.1084 24.0293C11.0889 24.0065 11.0921 23.9479 11.1182 23.8535C11.1312 23.8079 11.154 23.7347 11.1865 23.6338C11.2223 23.5329 11.2565 23.4238 11.2891 23.3066C11.3216 23.1862 11.3493 23.0674 11.3721 22.9502C11.3981 22.8298 11.4111 22.7256 11.4111 22.6377C11.4111 22.5758 11.3997 22.5335 11.377 22.5107C11.3574 22.488 11.3281 22.4766 11.2891 22.4766C11.2598 22.4766 11.2109 22.4928 11.1426 22.5254C11.0742 22.5579 10.9977 22.6214 10.9131 22.7158C10.8285 22.8102 10.7438 22.9421 10.6592 23.1113C10.5778 23.2773 10.5078 23.4938 10.4492 23.7607V23.751C10.4427 23.777 10.4362 23.8031 10.4297 23.8291C10.4232 23.8519 10.4183 23.8763 10.415 23.9023C10.4118 23.9284 10.4069 23.9528 10.4004 23.9756L10.1562 24.083C10.14 24.0895 10.1188 24.0944 10.0928 24.0977C10.07 24.1009 10.0472 24.096 10.0244 24.083C10.0049 24.0732 9.99023 24.0505 9.98047 24.0146C9.9707 23.9788 9.97396 23.9251 9.99023 23.8535L10.2979 22.5791C10.3076 22.5368 10.3158 22.4961 10.3223 22.457C10.3288 22.4212 10.332 22.387 10.332 22.3545C10.3353 22.3187 10.3337 22.2894 10.3271 22.2666C10.3825 22.2406 10.4313 22.221 10.4736 22.208C10.516 22.195 10.5501 22.1852 10.5762 22.1787C10.6087 22.1689 10.6364 22.1641 10.6592 22.1641C10.7633 22.1641 10.7975 22.2536 10.7617 22.4326C10.7487 22.4847 10.7292 22.5612 10.7031 22.6621C10.765 22.584 10.8301 22.5107 10.8984 22.4424C10.9701 22.3708 11.0417 22.3073 11.1133 22.252C11.1849 22.1966 11.2565 22.1527 11.3281 22.1201C11.403 22.0876 11.4762 22.0713 11.5479 22.0713C11.6032 22.0713 11.6488 22.0876 11.6846 22.1201C11.7236 22.1527 11.7529 22.1966 11.7725 22.252C11.7952 22.304 11.8083 22.3675 11.8115 22.4424C11.8148 22.514 11.8115 22.5889 11.8018 22.667C11.8538 22.5986 11.9108 22.5303 11.9727 22.4619C12.0378 22.3903 12.1045 22.3268 12.1729 22.2715C12.2445 22.2161 12.3177 22.1706 12.3926 22.1348C12.4674 22.099 12.5423 22.0811 12.6172 22.0811C12.7051 22.0811 12.7718 22.1071 12.8174 22.1592C12.8662 22.2113 12.8988 22.278 12.915 22.3594C12.9346 22.4408 12.9395 22.5286 12.9297 22.623C12.9232 22.7174 12.9102 22.8086 12.8906 22.8965L12.7246 23.5557C12.6888 23.7184 12.723 23.7998 12.8271 23.7998C12.9085 23.7998 12.998 23.7607 13.0957 23.6826C13.1934 23.6045 13.2878 23.5117 13.3789 23.4043C13.4733 23.2969 13.5612 23.1862 13.6426 23.0723C13.724 22.9583 13.7923 22.8672 13.8477 22.7988C13.8672 22.776 13.8867 22.763 13.9062 22.7598C13.929 22.7565 13.9469 22.7614 13.96 22.7744C13.9762 22.7842 13.9844 22.8021 13.9844 22.8281C13.9876 22.8542 13.9795 22.8867 13.96 22.9258C13.8949 23.0397 13.8151 23.1667 13.7207 23.3066C13.6263 23.4434 13.5221 23.5719 13.4082 23.6924C13.2975 23.8128 13.1787 23.9137 13.0518 23.9951C12.9248 24.0765 12.793 24.1172 12.6562 24.1172C12.6107 24.1172 12.5651 24.1123 12.5195 24.1025C12.4772 24.0928 12.4365 24.0749 12.3975 24.0488C12.3617 24.0228 12.3324 23.9886 12.3096 23.9463C12.2868 23.9007 12.2754 23.8438 12.2754 23.7754ZM15.0342 23.2236C15.0016 23.3473 14.9577 23.4629 14.9023 23.5703C14.847 23.6777 14.7803 23.7705 14.7021 23.8486C14.6273 23.9268 14.541 23.987 14.4434 24.0293C14.349 24.0749 14.2448 24.0977 14.1309 24.0977C13.9974 24.0977 13.8916 24.0684 13.8135 24.0098C13.7386 23.9544 13.6816 23.8844 13.6426 23.7998C13.6068 23.7152 13.5856 23.6224 13.5791 23.5215C13.5693 23.4206 13.5645 23.3262 13.5645 23.2383C13.5645 23.1764 13.5726 23.1081 13.5889 23.0332C13.6019 22.9583 13.6214 22.8818 13.6475 22.8037C13.6735 22.7256 13.7061 22.6475 13.7451 22.5693C13.7874 22.4912 13.8363 22.4196 13.8916 22.3545C13.9111 22.2992 13.9404 22.2503 13.9795 22.208C14.0218 22.1657 14.069 22.1315 14.1211 22.1055C14.1764 22.0762 14.235 22.055 14.2969 22.042C14.3587 22.0257 14.4189 22.0176 14.4775 22.0176C14.4873 22.0176 14.4954 22.0192 14.502 22.0225C14.5117 22.0257 14.5215 22.029 14.5312 22.0322C14.5736 22.0355 14.6257 22.0518 14.6875 22.0811C14.7526 22.1104 14.8145 22.1543 14.873 22.2129C14.9349 22.2715 14.987 22.3464 15.0293 22.4375C15.0716 22.5254 15.0928 22.6328 15.0928 22.7598C15.0928 22.7858 15.0911 22.8184 15.0879 22.8574C15.0846 22.8932 15.0814 22.9242 15.0781 22.9502C15.153 22.9209 15.2311 22.8851 15.3125 22.8428C15.3939 22.8005 15.472 22.7565 15.5469 22.7109C15.625 22.6621 15.6966 22.6133 15.7617 22.5645C15.8268 22.5156 15.8789 22.4717 15.918 22.4326C15.9505 22.4033 15.9782 22.387 16.001 22.3838C16.0238 22.3805 16.04 22.387 16.0498 22.4033C16.0596 22.4196 16.0612 22.4424 16.0547 22.4717C16.0482 22.501 16.0303 22.5335 16.001 22.5693C15.9847 22.5889 15.9424 22.6279 15.874 22.6865C15.8089 22.7451 15.7308 22.8086 15.6396 22.877C15.5485 22.9453 15.4492 23.012 15.3418 23.0771C15.2344 23.1423 15.1318 23.1911 15.0342 23.2236ZM14.209 22.4814C14.1992 22.5107 14.1943 22.5417 14.1943 22.5742C14.1943 22.6263 14.1976 22.6816 14.2041 22.7402C14.2106 22.7956 14.2269 22.846 14.2529 22.8916C14.279 22.9372 14.3197 22.9762 14.375 23.0088C14.4336 23.0381 14.5133 23.0527 14.6143 23.0527C14.6305 23.0527 14.6468 23.0527 14.6631 23.0527C14.6794 23.0495 14.6956 23.0462 14.7119 23.043C14.7217 23.0007 14.7298 22.9632 14.7363 22.9307C14.7461 22.8949 14.751 22.8639 14.751 22.8379C14.7575 22.776 14.7575 22.7126 14.751 22.6475C14.7445 22.5824 14.7314 22.5238 14.7119 22.4717C14.6956 22.4163 14.6729 22.3724 14.6436 22.3398C14.6175 22.304 14.585 22.2861 14.5459 22.2861C14.484 22.2861 14.4238 22.304 14.3652 22.3398C14.3099 22.3724 14.2578 22.4196 14.209 22.4814ZM13.8965 23.3408C13.8965 23.3994 13.8997 23.458 13.9062 23.5166C13.9128 23.5719 13.9258 23.6224 13.9453 23.668C13.9648 23.7103 13.9909 23.7461 14.0234 23.7754C14.056 23.8014 14.0983 23.8145 14.1504 23.8145C14.209 23.8145 14.2627 23.8014 14.3115 23.7754C14.3604 23.7461 14.4043 23.7103 14.4434 23.668C14.4824 23.6224 14.5166 23.5719 14.5459 23.5166C14.5785 23.458 14.6061 23.3978 14.6289 23.3359C14.6061 23.3392 14.5833 23.3424 14.5605 23.3457C14.541 23.3457 14.5182 23.3457 14.4922 23.3457C14.3685 23.3457 14.2611 23.3099 14.1699 23.2383C14.082 23.1634 14.0137 23.069 13.9648 22.9551C13.9453 23.0234 13.929 23.0902 13.916 23.1553C13.903 23.2204 13.8965 23.2822 13.8965 23.3408ZM16.9873 23.1309C16.9027 23.2546 16.8148 23.375 16.7236 23.4922C16.6357 23.6094 16.5495 23.7152 16.4648 23.8096C16.3835 23.9007 16.307 23.974 16.2354 24.0293C16.167 24.0879 16.1117 24.1172 16.0693 24.1172C15.9684 24.1172 15.8854 24.07 15.8203 23.9756C15.7585 23.8779 15.7096 23.7591 15.6738 23.6191C15.6413 23.4759 15.6201 23.3245 15.6104 23.165C15.6038 23.0023 15.6055 22.8574 15.6152 22.7305C15.6283 22.6035 15.6429 22.5026 15.6592 22.4277C15.6755 22.3496 15.695 22.2894 15.7178 22.2471C15.7438 22.2048 15.7731 22.1738 15.8057 22.1543C15.8415 22.1348 15.8854 22.1185 15.9375 22.1055C15.9603 22.099 15.9863 22.0941 16.0156 22.0908C16.0449 22.0876 16.071 22.0892 16.0938 22.0957C16.1198 22.099 16.1393 22.1087 16.1523 22.125C16.1654 22.1413 16.167 22.1657 16.1572 22.1982C16.1507 22.2275 16.1393 22.2715 16.123 22.3301C16.11 22.3854 16.0954 22.4489 16.0791 22.5205C16.0628 22.5921 16.0465 22.667 16.0303 22.7451C16.0173 22.8232 16.0075 22.8981 16.001 22.9697C15.9912 23.0934 15.9912 23.2025 16.001 23.2969C16.0107 23.388 16.0254 23.4661 16.0449 23.5312C16.0645 23.5931 16.0856 23.6403 16.1084 23.6729C16.1312 23.7054 16.1491 23.7217 16.1621 23.7217C16.1784 23.7217 16.2077 23.7005 16.25 23.6582C16.2956 23.6126 16.346 23.554 16.4014 23.4824C16.46 23.4108 16.5202 23.3278 16.582 23.2334C16.6471 23.139 16.7074 23.0413 16.7627 22.9404C16.7432 22.8883 16.735 22.8265 16.7383 22.7549C16.748 22.6442 16.7725 22.5449 16.8115 22.457C16.8506 22.3659 16.8945 22.2894 16.9434 22.2275C16.9954 22.1657 17.0475 22.1185 17.0996 22.0859C17.1549 22.0501 17.2038 22.0322 17.2461 22.0322C17.3307 22.0322 17.3828 22.055 17.4023 22.1006C17.4251 22.1429 17.4333 22.1868 17.4268 22.2324C17.4202 22.3008 17.3893 22.3952 17.334 22.5156C17.2819 22.6328 17.2135 22.7614 17.1289 22.9014C17.1452 22.9079 17.1631 22.9144 17.1826 22.9209C17.2021 22.9274 17.2249 22.9307 17.251 22.9307C17.3617 22.9307 17.4609 22.9176 17.5488 22.8916C17.64 22.8656 17.7181 22.8346 17.7832 22.7988C17.8516 22.763 17.9085 22.7256 17.9541 22.6865C18.0029 22.6442 18.042 22.61 18.0713 22.584C18.0908 22.5645 18.1104 22.5547 18.1299 22.5547C18.1494 22.5547 18.1657 22.5596 18.1787 22.5693C18.1917 22.5791 18.1982 22.5938 18.1982 22.6133C18.1982 22.6328 18.1885 22.654 18.1689 22.6768C18.0518 22.82 17.9085 22.9355 17.7393 23.0234C17.5732 23.1113 17.3779 23.1553 17.1533 23.1553C17.1338 23.1553 17.1094 23.1536 17.0801 23.1504C17.0508 23.1471 17.0199 23.1406 16.9873 23.1309ZM18.7695 21.124C18.7598 21.1598 18.7402 21.1956 18.7109 21.2314C18.6849 21.264 18.654 21.2917 18.6182 21.3145C18.5856 21.334 18.5514 21.347 18.5156 21.3535C18.4798 21.36 18.4505 21.3535 18.4277 21.334C18.3594 21.2819 18.3236 21.2266 18.3203 21.168C18.3171 21.1061 18.3317 21.0492 18.3643 20.9971C18.3968 20.9417 18.4375 20.8962 18.4863 20.8604C18.5352 20.8213 18.5775 20.7985 18.6133 20.792C18.6491 20.7855 18.6784 20.7936 18.7012 20.8164C18.7272 20.8359 18.7467 20.8636 18.7598 20.8994C18.7728 20.932 18.7793 20.9694 18.7793 21.0117C18.7826 21.054 18.7793 21.0915 18.7695 21.124ZM18.0957 22.1641C18.112 22.1445 18.1429 22.1283 18.1885 22.1152C18.234 22.1022 18.2812 22.0924 18.3301 22.0859C18.3789 22.0762 18.4229 22.0713 18.4619 22.0713C18.5042 22.068 18.5286 22.068 18.5352 22.0713C18.5384 22.0745 18.5303 22.1087 18.5107 22.1738C18.4912 22.2389 18.4668 22.3154 18.4375 22.4033C18.4082 22.4912 18.3773 22.5824 18.3447 22.6768C18.3122 22.7679 18.2878 22.8428 18.2715 22.9014C18.2552 22.96 18.2357 23.0267 18.2129 23.1016C18.1901 23.1732 18.1689 23.2448 18.1494 23.3164C18.1331 23.3848 18.1217 23.4499 18.1152 23.5117C18.1087 23.5736 18.1136 23.6208 18.1299 23.6533C18.1462 23.6924 18.1641 23.7201 18.1836 23.7363C18.2031 23.7493 18.2243 23.7559 18.2471 23.7559C18.3122 23.7559 18.3936 23.7201 18.4912 23.6484C18.5921 23.5768 18.693 23.4922 18.7939 23.3945C18.8981 23.2936 18.9941 23.1927 19.082 23.0918C19.1699 22.9876 19.235 22.9046 19.2773 22.8428C19.3034 22.8102 19.3294 22.7891 19.3555 22.7793C19.3848 22.7695 19.4076 22.7712 19.4238 22.7842C19.4434 22.7972 19.4531 22.8184 19.4531 22.8477C19.4564 22.877 19.4466 22.9111 19.4238 22.9502C19.3717 23.0413 19.2952 23.1504 19.1943 23.2773C19.0934 23.401 18.986 23.5215 18.8721 23.6387C18.7581 23.7526 18.6458 23.8503 18.5352 23.9316C18.4277 24.013 18.3398 24.0553 18.2715 24.0586C18.2161 24.0618 18.1608 24.0521 18.1055 24.0293C18.0534 24.0098 18.0046 23.9821 17.959 23.9463C17.9167 23.9072 17.8809 23.8633 17.8516 23.8145C17.8223 23.7624 17.806 23.7087 17.8027 23.6533C17.793 23.5719 17.793 23.4613 17.8027 23.3213C17.8125 23.1781 17.8304 23.0332 17.8564 22.8867C17.8825 22.737 17.915 22.5954 17.9541 22.4619C17.9964 22.3285 18.0436 22.2292 18.0957 22.1641ZM21.2793 22.9844C21.1816 23.1276 21.071 23.2676 20.9473 23.4043C20.8236 23.5378 20.6917 23.6582 20.5518 23.7656C20.415 23.8698 20.2734 23.9544 20.127 24.0195C19.9837 24.0846 19.8438 24.1172 19.707 24.1172C19.6354 24.1172 19.5573 24.0993 19.4727 24.0635C19.3913 24.0309 19.3164 23.9788 19.248 23.9072C19.1797 23.8356 19.1243 23.7428 19.082 23.6289C19.043 23.515 19.0316 23.3766 19.0479 23.2139C19.0609 23.0804 19.1016 22.9404 19.1699 22.7939C19.2415 22.6442 19.3278 22.5075 19.4287 22.3838C19.5329 22.2601 19.6484 22.1576 19.7754 22.0762C19.9056 21.9948 20.0358 21.9541 20.166 21.9541C20.2897 21.9541 20.3792 21.985 20.4346 22.0469C20.4899 22.1087 20.5143 22.1852 20.5078 22.2764C20.498 22.3773 20.4688 22.4701 20.4199 22.5547C20.3743 22.6393 20.319 22.7158 20.2539 22.7842C20.1888 22.8525 20.1188 22.9144 20.0439 22.9697C19.9723 23.0251 19.904 23.0755 19.8389 23.1211C19.7673 23.1699 19.6989 23.2171 19.6338 23.2627C19.5687 23.305 19.5117 23.3441 19.4629 23.3799C19.4661 23.4613 19.4808 23.5296 19.5068 23.585C19.5329 23.6403 19.5654 23.6859 19.6045 23.7217C19.6436 23.7542 19.6875 23.7786 19.7363 23.7949C19.7884 23.8079 19.8405 23.8145 19.8926 23.8145C20.0033 23.8145 20.1188 23.7803 20.2393 23.7119C20.3597 23.6403 20.4769 23.5557 20.5908 23.458C20.708 23.3571 20.8154 23.2529 20.9131 23.1455C21.014 23.0381 21.097 22.9453 21.1621 22.8672C21.1849 22.8411 21.2077 22.8265 21.2305 22.8232C21.2565 22.8167 21.276 22.82 21.2891 22.833C21.3053 22.8428 21.3135 22.8623 21.3135 22.8916C21.3135 22.9176 21.3021 22.9486 21.2793 22.9844ZM20.0293 22.2324C19.9902 22.2324 19.943 22.252 19.8877 22.291C19.8356 22.3301 19.7835 22.387 19.7314 22.4619C19.6794 22.5335 19.6305 22.623 19.585 22.7305C19.5394 22.8346 19.5052 22.9551 19.4824 23.0918C19.5215 23.0625 19.5638 23.0332 19.6094 23.0039C19.6549 22.9714 19.7005 22.9372 19.7461 22.9014C19.8861 22.7939 19.9837 22.6995 20.0391 22.6182C20.0944 22.5368 20.1253 22.4668 20.1318 22.4082C20.1383 22.3464 20.1318 22.3024 20.1123 22.2764C20.0928 22.2471 20.0651 22.2324 20.0293 22.2324Z" fill="#2A86BA"/>
<path d="M10.5527 8.06738C10.5365 8.16829 10.5202 8.26432 10.5039 8.35547C10.4909 8.44661 10.4827 8.51986 10.4795 8.5752C10.4762 8.65658 10.4909 8.71517 10.5234 8.75098C10.556 8.78678 10.5918 8.80469 10.6309 8.80469C10.6764 8.80469 10.7318 8.7819 10.7969 8.73633C10.8652 8.69076 10.9368 8.63379 11.0117 8.56543C11.0866 8.49707 11.1615 8.4222 11.2363 8.34082C11.3112 8.25944 11.3796 8.18294 11.4414 8.11133C11.5065 8.03646 11.5602 7.97135 11.6025 7.91602C11.6481 7.86068 11.679 7.82487 11.6953 7.80859C11.7148 7.78906 11.7344 7.77767 11.7539 7.77441C11.7767 7.77116 11.7946 7.77441 11.8076 7.78418C11.8206 7.79395 11.8271 7.81185 11.8271 7.83789C11.8271 7.86393 11.8141 7.89648 11.7881 7.93555C11.749 7.9974 11.6986 8.07064 11.6367 8.15527C11.5749 8.23665 11.5065 8.32129 11.4316 8.40918C11.3568 8.49707 11.277 8.58333 11.1924 8.66797C11.111 8.7526 11.028 8.82747 10.9434 8.89258C10.862 8.95768 10.7822 9.00977 10.7041 9.04883C10.6292 9.09115 10.5609 9.1123 10.499 9.1123C10.4535 9.1123 10.4095 9.09928 10.3672 9.07324C10.3281 9.0472 10.2923 9.01302 10.2598 8.9707C10.2272 8.92839 10.2012 8.88118 10.1816 8.8291C10.1654 8.77702 10.1589 8.72493 10.1621 8.67285C10.1654 8.65007 10.1702 8.611 10.1768 8.55566C10.04 8.70866 9.90169 8.83073 9.76172 8.92188C9.625 9.00977 9.49316 9.05371 9.36621 9.05371C9.32064 9.05371 9.27181 9.04232 9.21973 9.01953C9.16764 8.99674 9.12044 8.95931 9.07812 8.90723C9.03906 8.85514 9.00651 8.78678 8.98047 8.70215C8.95443 8.61751 8.94466 8.51497 8.95117 8.39453C8.96094 8.20573 8.99837 8.02669 9.06348 7.85742C9.12858 7.68815 9.20996 7.54167 9.30762 7.41797C9.40853 7.29102 9.52083 7.19173 9.64453 7.12012C9.77148 7.04525 9.89844 7.00781 10.0254 7.00781C10.0807 7.00781 10.1312 7.02246 10.1768 7.05176C10.2223 7.0778 10.2614 7.11361 10.2939 7.15918C10.3265 7.2015 10.3525 7.2487 10.3721 7.30078C10.3949 7.35286 10.4111 7.40169 10.4209 7.44727C10.4437 7.35286 10.4648 7.26009 10.4844 7.16895C10.5039 7.0778 10.5234 6.99154 10.543 6.91016C10.5755 6.78971 10.6097 6.65951 10.6455 6.51953C10.6781 6.39909 10.7155 6.26074 10.7578 6.10449C10.8001 5.94824 10.8473 5.78385 10.8994 5.61133C10.932 5.58529 10.9629 5.56576 10.9922 5.55273C11.0215 5.53971 11.0492 5.52995 11.0752 5.52344C11.1045 5.51367 11.1322 5.50879 11.1582 5.50879C11.1908 5.50879 11.2201 5.51367 11.2461 5.52344C11.2721 5.52995 11.2933 5.55111 11.3096 5.58691C11.3291 5.61947 11.3421 5.66992 11.3486 5.73828C11.3551 5.80664 11.3551 5.89941 11.3486 6.0166C11.3421 6.15983 11.3161 6.31608 11.2705 6.48535C11.2282 6.65462 11.1712 6.8304 11.0996 7.0127C11.028 7.19173 10.945 7.3724 10.8506 7.55469C10.7594 7.73372 10.6602 7.90462 10.5527 8.06738ZM10.2646 8.13086C10.2777 8.06901 10.2891 8.00716 10.2988 7.94531C10.3118 7.88346 10.3265 7.81999 10.3428 7.75488C10.3363 7.75814 10.3298 7.76139 10.3232 7.76465C10.32 7.7679 10.3151 7.77116 10.3086 7.77441C10.2728 7.79069 10.2484 7.79069 10.2354 7.77441C10.2223 7.75488 10.2158 7.72559 10.2158 7.68652C10.2158 7.66699 10.2142 7.63281 10.2109 7.58398C10.2077 7.5319 10.1979 7.47982 10.1816 7.42773C10.1686 7.3724 10.1475 7.3252 10.1182 7.28613C10.0889 7.24382 10.0482 7.22266 9.99609 7.22266C9.92122 7.22266 9.84473 7.26172 9.7666 7.33984C9.68848 7.41471 9.61523 7.50749 9.54688 7.61816C9.47852 7.72559 9.42155 7.84115 9.37598 7.96484C9.3304 8.08854 9.30436 8.19922 9.29785 8.29688C9.29134 8.45312 9.31087 8.56543 9.35645 8.63379C9.40202 8.70215 9.46387 8.73633 9.54199 8.73633C9.60059 8.73633 9.66406 8.71354 9.73242 8.66797C9.80404 8.6224 9.8724 8.56706 9.9375 8.50195C10.0059 8.43685 10.0677 8.37012 10.123 8.30176C10.1816 8.2334 10.2288 8.17643 10.2646 8.13086ZM11.2314 8.97559C11.2087 9.01139 11.1842 9.03418 11.1582 9.04395C11.1289 9.05697 11.1045 9.05859 11.085 9.04883C11.0622 9.04232 11.0475 9.02604 11.041 9C11.0345 8.97396 11.041 8.94141 11.0605 8.90234C11.0703 8.88281 11.0931 8.83887 11.1289 8.77051C11.1615 8.70215 11.2021 8.62077 11.251 8.52637C11.2965 8.42871 11.347 8.32454 11.4023 8.21387C11.4577 8.09993 11.5098 7.99251 11.5586 7.8916C11.6107 7.79069 11.6579 7.70117 11.7002 7.62305C11.7425 7.54167 11.7734 7.48307 11.793 7.44727C11.7572 7.41471 11.7327 7.39193 11.7197 7.37891C11.7067 7.36263 11.6969 7.33008 11.6904 7.28125C11.6839 7.23893 11.6937 7.18359 11.7197 7.11523C11.7458 7.04688 11.7799 6.98177 11.8223 6.91992C11.8646 6.85482 11.9118 6.79948 11.9639 6.75391C12.016 6.70833 12.0664 6.68555 12.1152 6.68555C12.2064 6.68555 12.2699 6.71484 12.3057 6.77344C12.3447 6.83203 12.3675 6.89225 12.374 6.9541C12.3805 6.99642 12.3773 7.05013 12.3643 7.11523C12.3512 7.18034 12.3268 7.23893 12.291 7.29102C12.3008 7.29753 12.3138 7.30566 12.3301 7.31543C12.3464 7.32194 12.3724 7.3252 12.4082 7.3252C12.4603 7.3252 12.4961 7.32194 12.5156 7.31543C12.5384 7.30892 12.5726 7.30566 12.6182 7.30566C12.6735 7.30566 12.7191 7.32031 12.7549 7.34961C12.7907 7.37565 12.82 7.40983 12.8428 7.45215C12.8656 7.49121 12.8818 7.53516 12.8916 7.58398C12.9046 7.62956 12.9128 7.67188 12.916 7.71094C12.9258 7.79232 12.9046 7.87695 12.8525 7.96484C12.8005 8.05273 12.737 8.14876 12.6621 8.25293C12.6165 8.31803 12.571 8.39128 12.5254 8.47266C12.4798 8.55404 12.4603 8.62728 12.4668 8.69238C12.4733 8.7347 12.4847 8.76888 12.501 8.79492C12.5173 8.82096 12.5628 8.83398 12.6377 8.83398C12.693 8.83398 12.7533 8.81445 12.8184 8.77539C12.8867 8.73307 12.9551 8.68099 13.0234 8.61914C13.0951 8.55404 13.165 8.48405 13.2334 8.40918C13.3018 8.33105 13.3652 8.25618 13.4238 8.18457C13.4824 8.1097 13.5312 8.04297 13.5703 7.98438C13.6126 7.92578 13.6436 7.88346 13.6631 7.85742C13.6794 7.83138 13.7005 7.81348 13.7266 7.80371C13.7526 7.79395 13.7754 7.79395 13.7949 7.80371C13.8145 7.81348 13.8258 7.83301 13.8291 7.8623C13.8356 7.8916 13.8242 7.93066 13.7949 7.97949C13.7754 8.01204 13.7412 8.06413 13.6924 8.13574C13.6468 8.20736 13.5898 8.28711 13.5215 8.375C13.4564 8.46289 13.3831 8.55404 13.3018 8.64844C13.2204 8.73958 13.1341 8.82422 13.043 8.90234C12.9551 8.97721 12.8656 9.03906 12.7744 9.08789C12.6865 9.13672 12.6019 9.16113 12.5205 9.16113C12.4359 9.16113 12.3659 9.14486 12.3105 9.1123C12.2552 9.07975 12.2096 9.04069 12.1738 8.99512C12.1413 8.94629 12.1169 8.89421 12.1006 8.83887C12.0876 8.78027 12.0827 8.72656 12.0859 8.67773C12.0892 8.63867 12.099 8.59798 12.1152 8.55566C12.1348 8.51009 12.1559 8.46452 12.1787 8.41895C12.2048 8.37012 12.2308 8.32292 12.2568 8.27734C12.2861 8.22852 12.3122 8.18132 12.335 8.13574C12.3903 8.04134 12.4342 7.96159 12.4668 7.89648C12.5026 7.82812 12.5205 7.77116 12.5205 7.72559C12.5205 7.69629 12.514 7.67025 12.501 7.64746C12.488 7.62467 12.4668 7.61328 12.4375 7.61328C12.418 7.61328 12.4033 7.61491 12.3936 7.61816C12.387 7.61816 12.3789 7.61816 12.3691 7.61816C12.3626 7.61816 12.3512 7.61979 12.335 7.62305C12.3219 7.62305 12.3008 7.62305 12.2715 7.62305C12.2292 7.62305 12.1934 7.61654 12.1641 7.60352C12.1348 7.59049 12.1071 7.58073 12.0811 7.57422C12.068 7.59701 12.0387 7.64583 11.9932 7.7207C11.9476 7.79557 11.8939 7.88346 11.832 7.98438C11.7734 8.08529 11.71 8.19108 11.6416 8.30176C11.5765 8.41243 11.5146 8.5166 11.4561 8.61426C11.3975 8.70866 11.3486 8.79004 11.3096 8.8584C11.2673 8.9235 11.2412 8.96257 11.2314 8.97559ZM15.6602 7.98438C15.5625 8.1276 15.4518 8.26758 15.3281 8.4043C15.2044 8.53776 15.0726 8.6582 14.9326 8.76562C14.7959 8.86979 14.6543 8.95443 14.5078 9.01953C14.3646 9.08464 14.2246 9.11719 14.0879 9.11719C14.0163 9.11719 13.9382 9.09928 13.8535 9.06348C13.7721 9.03092 13.6973 8.97884 13.6289 8.90723C13.5605 8.83561 13.5052 8.74284 13.4629 8.62891C13.4238 8.51497 13.4124 8.37663 13.4287 8.21387C13.4417 8.0804 13.4824 7.94043 13.5508 7.79395C13.6224 7.64421 13.7087 7.50749 13.8096 7.38379C13.9137 7.26009 14.0293 7.15755 14.1562 7.07617C14.2865 6.99479 14.4167 6.9541 14.5469 6.9541C14.6706 6.9541 14.7601 6.98503 14.8154 7.04688C14.8708 7.10872 14.8952 7.18522 14.8887 7.27637C14.8789 7.37728 14.8496 7.47005 14.8008 7.55469C14.7552 7.63932 14.6999 7.71582 14.6348 7.78418C14.5697 7.85254 14.4997 7.91439 14.4248 7.96973C14.3532 8.02507 14.2848 8.07552 14.2197 8.12109C14.1481 8.16992 14.0798 8.21712 14.0146 8.2627C13.9495 8.30501 13.8926 8.34408 13.8438 8.37988C13.847 8.46126 13.8617 8.52962 13.8877 8.58496C13.9137 8.6403 13.9463 8.68587 13.9854 8.72168C14.0244 8.75423 14.0684 8.77865 14.1172 8.79492C14.1693 8.80794 14.2214 8.81445 14.2734 8.81445C14.3841 8.81445 14.4997 8.78027 14.6201 8.71191C14.7406 8.6403 14.8577 8.55566 14.9717 8.45801C15.0889 8.3571 15.1963 8.25293 15.2939 8.14551C15.3949 8.03809 15.4779 7.94531 15.543 7.86719C15.5658 7.84115 15.5885 7.8265 15.6113 7.82324C15.6374 7.81673 15.6569 7.81999 15.6699 7.83301C15.6862 7.84277 15.6943 7.8623 15.6943 7.8916C15.6943 7.91764 15.6829 7.94857 15.6602 7.98438ZM14.4102 7.23242C14.3711 7.23242 14.3239 7.25195 14.2686 7.29102C14.2165 7.33008 14.1644 7.38704 14.1123 7.46191C14.0602 7.53353 14.0114 7.62305 13.9658 7.73047C13.9202 7.83464 13.8861 7.95508 13.8633 8.0918C13.9023 8.0625 13.9447 8.0332 13.9902 8.00391C14.0358 7.97135 14.0814 7.93717 14.127 7.90137C14.2669 7.79395 14.3646 7.69954 14.4199 7.61816C14.4753 7.53678 14.5062 7.4668 14.5127 7.4082C14.5192 7.34635 14.5127 7.30241 14.4932 7.27637C14.4736 7.24707 14.446 7.23242 14.4102 7.23242ZM17.8135 8.02832C17.7679 8.09342 17.7093 8.1748 17.6377 8.27246C17.5661 8.36686 17.4912 8.46289 17.4131 8.56055C17.3382 8.65495 17.2633 8.74284 17.1885 8.82422C17.1169 8.90234 17.0566 8.95768 17.0078 8.99023C16.9753 9.00977 16.9378 9.02604 16.8955 9.03906C16.8532 9.05208 16.8092 9.06022 16.7637 9.06348C16.7214 9.06673 16.6807 9.06348 16.6416 9.05371C16.6025 9.0472 16.5684 9.03418 16.5391 9.01465C16.5098 8.99186 16.4854 8.95931 16.4658 8.91699C16.4495 8.88118 16.4333 8.83398 16.417 8.77539C16.404 8.7168 16.3991 8.64355 16.4023 8.55566C16.3242 8.68587 16.238 8.78678 16.1436 8.8584C16.0492 8.92676 15.9596 8.97721 15.875 9.00977C15.7773 9.04557 15.6797 9.06673 15.582 9.07324C15.5365 9.07324 15.4876 9.05697 15.4355 9.02441C15.3835 8.99512 15.3395 8.94792 15.3037 8.88281C15.2679 8.81445 15.2451 8.72819 15.2354 8.62402C15.2256 8.5166 15.2386 8.38965 15.2744 8.24316C15.32 8.0446 15.3916 7.86393 15.4893 7.70117C15.5902 7.53841 15.6992 7.40007 15.8164 7.28613C15.9336 7.16895 16.0492 7.08105 16.1631 7.02246C16.277 6.96387 16.3714 6.93783 16.4463 6.94434C16.5342 6.96061 16.6058 6.98665 16.6611 7.02246C16.7067 7.05501 16.736 7.10384 16.749 7.16895C16.7653 7.23079 16.7393 7.3138 16.6709 7.41797C16.7165 7.4082 16.7539 7.40169 16.7832 7.39844C16.8158 7.39518 16.8402 7.39355 16.8564 7.39355C16.876 7.39355 16.889 7.39518 16.8955 7.39844C16.8988 7.40495 16.9004 7.4196 16.9004 7.44238C16.9004 7.46191 16.8955 7.49935 16.8857 7.55469C16.876 7.61003 16.8613 7.6849 16.8418 7.7793C16.8223 7.8737 16.7962 7.99577 16.7637 8.14551C16.7572 8.1748 16.7507 8.20247 16.7441 8.22852C16.7409 8.2513 16.736 8.27572 16.7295 8.30176C16.7262 8.32454 16.7214 8.35221 16.7148 8.38477C16.7083 8.41732 16.7002 8.45801 16.6904 8.50684C16.6872 8.53613 16.6855 8.56868 16.6855 8.60449C16.6888 8.63704 16.6953 8.66797 16.7051 8.69727C16.7148 8.72656 16.7295 8.75098 16.749 8.77051C16.7718 8.78678 16.8027 8.79492 16.8418 8.79492C16.8743 8.79492 16.9167 8.77539 16.9688 8.73633C17.0208 8.69401 17.0762 8.64193 17.1348 8.58008C17.1934 8.51497 17.2536 8.44499 17.3154 8.37012C17.3805 8.29199 17.4408 8.21712 17.4961 8.14551C17.5514 8.07389 17.6003 8.01042 17.6426 7.95508C17.6882 7.89974 17.7207 7.85905 17.7402 7.83301C17.7663 7.80371 17.7923 7.78743 17.8184 7.78418C17.8444 7.77767 17.8639 7.78418 17.877 7.80371C17.89 7.82324 17.8916 7.85254 17.8818 7.8916C17.8753 7.93066 17.8525 7.97624 17.8135 8.02832ZM16.3828 8.24316C16.3991 8.17806 16.4186 8.10156 16.4414 8.01367C16.4642 7.92578 16.4837 7.84115 16.5 7.75977C16.5163 7.67839 16.5277 7.61165 16.5342 7.55957C16.5439 7.50423 16.5423 7.47819 16.5293 7.48145C16.513 7.4847 16.4951 7.48958 16.4756 7.49609C16.4593 7.5026 16.4382 7.50749 16.4121 7.51074C16.3861 7.514 16.36 7.51888 16.334 7.52539C16.36 7.47331 16.3747 7.43099 16.3779 7.39844C16.3844 7.36263 16.3861 7.33496 16.3828 7.31543C16.3796 7.29264 16.373 7.27474 16.3633 7.26172C16.3275 7.23242 16.264 7.25684 16.1729 7.33496C16.085 7.40983 15.9824 7.5498 15.8652 7.75488C15.8164 7.83952 15.7773 7.93066 15.748 8.02832C15.7188 8.12272 15.6976 8.21224 15.6846 8.29688C15.6748 8.38151 15.6732 8.45638 15.6797 8.52148C15.6862 8.58333 15.6992 8.62402 15.7188 8.64355C15.7546 8.67936 15.7952 8.69727 15.8408 8.69727C15.8864 8.69401 15.932 8.68099 15.9775 8.6582C16.0264 8.63216 16.0736 8.59961 16.1191 8.56055C16.168 8.52148 16.2103 8.48079 16.2461 8.43848C16.2852 8.39616 16.3161 8.3571 16.3389 8.32129C16.3649 8.28548 16.3796 8.25944 16.3828 8.24316ZM19.7617 8.77539C19.7617 8.70703 19.7682 8.62891 19.7812 8.54102C19.7975 8.45312 19.8171 8.36361 19.8398 8.27246C19.8626 8.17806 19.8854 8.08691 19.9082 7.99902C19.931 7.91113 19.9505 7.83301 19.9668 7.76465C19.9863 7.68001 19.9847 7.61491 19.9619 7.56934C19.9391 7.52376 19.9001 7.50098 19.8447 7.50098C19.8187 7.50098 19.7666 7.52376 19.6885 7.56934C19.6136 7.61491 19.5306 7.69466 19.4395 7.80859C19.3516 7.91927 19.2637 8.07064 19.1758 8.2627C19.0911 8.4515 19.0244 8.69238 18.9756 8.98535C18.9137 9.0179 18.8551 9.03906 18.7998 9.04883C18.7705 9.05534 18.7445 9.06022 18.7217 9.06348C18.6566 9.06673 18.6143 9.05534 18.5947 9.0293C18.5752 9.00651 18.5785 8.94792 18.6045 8.85352C18.6175 8.80794 18.6403 8.7347 18.6729 8.63379C18.7087 8.53288 18.7428 8.42383 18.7754 8.30664C18.8079 8.1862 18.8356 8.06738 18.8584 7.9502C18.8844 7.82975 18.8975 7.72559 18.8975 7.6377C18.8975 7.57585 18.8861 7.53353 18.8633 7.51074C18.8438 7.48796 18.8145 7.47656 18.7754 7.47656C18.7461 7.47656 18.6973 7.49284 18.6289 7.52539C18.5605 7.55794 18.484 7.62142 18.3994 7.71582C18.3148 7.81022 18.2301 7.94206 18.1455 8.11133C18.0641 8.27734 17.9941 8.49382 17.9355 8.76074V8.75098C17.929 8.77702 17.9225 8.80306 17.916 8.8291C17.9095 8.85189 17.9046 8.8763 17.9014 8.90234C17.8981 8.92839 17.8932 8.9528 17.8867 8.97559L17.6426 9.08301C17.6263 9.08952 17.6051 9.0944 17.5791 9.09766C17.5563 9.10091 17.5335 9.09603 17.5107 9.08301C17.4912 9.07324 17.4766 9.05046 17.4668 9.01465C17.457 8.97884 17.4603 8.92513 17.4766 8.85352L17.7842 7.5791C17.7939 7.53678 17.8021 7.49609 17.8086 7.45703C17.8151 7.42122 17.8184 7.38704 17.8184 7.35449C17.8216 7.31868 17.82 7.28939 17.8135 7.2666C17.8688 7.24056 17.9176 7.22103 17.96 7.20801C18.0023 7.19499 18.0365 7.18522 18.0625 7.17871C18.0951 7.16895 18.1227 7.16406 18.1455 7.16406C18.2497 7.16406 18.2839 7.25358 18.248 7.43262C18.235 7.4847 18.2155 7.5612 18.1895 7.66211C18.2513 7.58398 18.3164 7.51074 18.3848 7.44238C18.4564 7.37077 18.528 7.30729 18.5996 7.25195C18.6712 7.19661 18.7428 7.15267 18.8145 7.12012C18.8893 7.08757 18.9626 7.07129 19.0342 7.07129C19.0895 7.07129 19.1351 7.08757 19.1709 7.12012C19.21 7.15267 19.2393 7.19661 19.2588 7.25195C19.2816 7.30404 19.2946 7.36751 19.2979 7.44238C19.3011 7.514 19.2979 7.58887 19.2881 7.66699C19.3402 7.59863 19.3971 7.53027 19.459 7.46191C19.5241 7.3903 19.5908 7.32682 19.6592 7.27148C19.7308 7.21615 19.804 7.17057 19.8789 7.13477C19.9538 7.09896 20.0286 7.08105 20.1035 7.08105C20.1914 7.08105 20.2581 7.1071 20.3037 7.15918C20.3525 7.21126 20.3851 7.27799 20.4014 7.35938C20.4209 7.44076 20.4258 7.52865 20.416 7.62305C20.4095 7.71745 20.3965 7.80859 20.377 7.89648L20.2109 8.55566C20.1751 8.71842 20.2093 8.7998 20.3135 8.7998C20.3949 8.7998 20.4844 8.76074 20.582 8.68262C20.6797 8.60449 20.7741 8.51172 20.8652 8.4043C20.9596 8.29688 21.0475 8.1862 21.1289 8.07227C21.2103 7.95833 21.2786 7.86719 21.334 7.79883C21.3535 7.77604 21.373 7.76302 21.3926 7.75977C21.4154 7.75651 21.4333 7.76139 21.4463 7.77441C21.4626 7.78418 21.4707 7.80208 21.4707 7.82812C21.474 7.85417 21.4658 7.88672 21.4463 7.92578C21.3812 8.03971 21.3014 8.16667 21.207 8.30664C21.1126 8.44336 21.0085 8.57194 20.8945 8.69238C20.7839 8.81283 20.665 8.91374 20.5381 8.99512C20.4111 9.0765 20.2793 9.11719 20.1426 9.11719C20.097 9.11719 20.0514 9.1123 20.0059 9.10254C19.9635 9.09277 19.9229 9.07487 19.8838 9.04883C19.848 9.02279 19.8187 8.98861 19.7959 8.94629C19.7731 8.90072 19.7617 8.84375 19.7617 8.77539Z" fill="#2A86BA"/>
</svg>
